<svg width="51" height="50" viewBox="0 0 51 50" fill="none" xmlns="http://www.w3.org/2000/svg">
<rect x="0.799988" width="50" height="50" rx="25" fill="#004F5C"/>
<path d="M24.6 15.4C24.2817 15.4 23.9765 15.5265 23.7515 15.7515C23.5264 15.9765 23.4 16.2818 23.4 16.6C23.4 16.9183 23.5264 17.2235 23.7515 17.4486C23.9765 17.6736 24.2817 17.8 24.6 17.8H27C27.3182 17.8 27.6235 17.6736 27.8485 17.4486C28.0736 17.2235 28.2 16.9183 28.2 16.6C28.2 16.2818 28.0736 15.9765 27.8485 15.7515C27.6235 15.5265 27.3182 15.4 27 15.4H24.6Z" fill="white"/>
<path fill-rule="evenodd" clip-rule="evenodd" d="M18.6 19C18.6 18.3635 18.8528 17.753 19.3029 17.3029C19.753 16.8528 20.3635 16.6 21 16.6C21 17.5548 21.3793 18.4704 22.0544 19.1456C22.7295 19.8207 23.6452 20.2 24.6 20.2H27C27.9548 20.2 28.8704 19.8207 29.5456 19.1456C30.2207 18.4704 30.6 17.5548 30.6 16.6C31.2365 16.6 31.847 16.8528 32.297 17.3029C32.7471 17.753 33 18.3635 33 19V32.2C33 32.8365 32.7471 33.4469 32.297 33.897C31.847 34.3471 31.2365 34.6 30.6 34.6H21C20.3635 34.6 19.753 34.3471 19.3029 33.897C18.8528 33.4469 18.6 32.8365 18.6 32.2V19ZM30.2484 25.8484C30.467 25.6221 30.5879 25.3189 30.5852 25.0043C30.5825 24.6897 30.4563 24.3887 30.2338 24.1662C30.0113 23.9437 29.7103 23.8175 29.3957 23.8148C29.081 23.812 28.7779 23.933 28.5516 24.1516L24.6 28.1032L23.0484 26.5516C22.8221 26.333 22.5189 26.212 22.2043 26.2148C21.8897 26.2175 21.5887 26.3437 21.3662 26.5662C21.1437 26.7887 21.0175 27.0897 21.0148 27.4043C21.012 27.7189 21.133 28.0221 21.3516 28.2484L23.7516 30.6484C23.9766 30.8733 24.2818 30.9997 24.6 30.9997C24.9182 30.9997 25.2234 30.8733 25.4484 30.6484L30.2484 25.8484Z" fill="white"/>
</svg>
