<svg width="51" height="50" viewBox="0 0 51 50" fill="none" xmlns="http://www.w3.org/2000/svg">
<rect x="0.399994" width="50" height="50" rx="25" fill="#004F5C"/>
<path d="M29 20.2C29 21.1548 28.6207 22.0704 27.9456 22.7456C27.2704 23.4207 26.3548 23.8 25.4 23.8C24.4452 23.8 23.5295 23.4207 22.8544 22.7456C22.1793 22.0704 21.8 21.1548 21.8 20.2C21.8 19.2452 22.1793 18.3295 22.8544 17.6544C23.5295 16.9793 24.4452 16.6 25.4 16.6C26.3548 16.6 27.2704 16.9793 27.9456 17.6544C28.6207 18.3295 29 19.2452 29 20.2ZM35 22.6C35 23.2365 34.7471 23.8469 34.297 24.297C33.847 24.7471 33.2365 25 32.6 25C31.9635 25 31.353 24.7471 30.9029 24.297C30.4528 23.8469 30.2 23.2365 30.2 22.6C30.2 21.9635 30.4528 21.353 30.9029 20.9029C31.353 20.4528 31.9635 20.2 32.6 20.2C33.2365 20.2 33.847 20.4528 34.297 20.9029C34.7471 21.353 35 21.9635 35 22.6ZM30.2 31C30.2 29.7269 29.6943 28.506 28.7941 27.6059C27.8939 26.7057 26.673 26.2 25.4 26.2C24.127 26.2 22.9061 26.7057 22.0059 27.6059C21.1057 28.506 20.6 29.7269 20.6 31V34.6H30.2V31ZM20.6 22.6C20.6 23.2365 20.3471 23.8469 19.897 24.297C19.447 24.7471 18.8365 25 18.2 25C17.5635 25 16.953 24.7471 16.5029 24.297C16.0528 23.8469 15.8 23.2365 15.8 22.6C15.8 21.9635 16.0528 21.353 16.5029 20.9029C16.953 20.4528 17.5635 20.2 18.2 20.2C18.8365 20.2 19.447 20.4528 19.897 20.9029C20.3471 21.353 20.6 21.9635 20.6 22.6ZM32.6 34.6V31C32.6017 29.7799 32.2919 28.5796 31.7 27.5128C32.232 27.3766 32.7881 27.3638 33.3258 27.4752C33.8636 27.5867 34.3687 27.8195 34.8028 28.1559C35.2369 28.4923 35.5884 28.9233 35.8305 29.4162C36.0727 29.9091 36.199 30.4508 36.2 31V34.6H32.6ZM19.1 27.5128C18.5081 28.5796 18.1983 29.7799 18.2 31V34.6H14.6V31C14.5998 30.4504 14.7253 29.9081 14.9671 29.4146C15.2089 28.9211 15.5605 28.4895 15.9949 28.1529C16.4292 27.8163 16.9349 27.5835 17.4732 27.4726C18.0114 27.3616 18.5679 27.3754 19.1 27.5128Z" fill="white"/>
</svg>
