<svg width="51" height="50" viewBox="0 0 51 50" fill="none" xmlns="http://www.w3.org/2000/svg">
<rect x="0.599945" width="50" height="50" rx="25" fill="#004F5C"/>
<path fill-rule="evenodd" clip-rule="evenodd" d="M22.8484 30.6484C22.6233 30.8734 22.3182 30.9998 22 30.9998C21.6818 30.9998 21.3766 30.8734 21.1516 30.6484L16.3516 25.8484C16.1266 25.6234 16.0002 25.3182 16.0002 25C16.0002 24.6818 16.1266 24.3767 16.3516 24.1516L21.1516 19.3516C21.3779 19.133 21.681 19.0121 21.9956 19.0148C22.3103 19.0175 22.6112 19.1438 22.8337 19.3662C23.0562 19.5887 23.1824 19.8897 23.1852 20.2043C23.1879 20.519 23.0669 20.8221 22.8484 21.0484L20.0968 23.8H34C34.3182 23.8 34.6234 23.9265 34.8485 24.1515C35.0735 24.3765 35.2 24.6818 35.2 25C35.2 25.3183 35.0735 25.6235 34.8485 25.8486C34.6234 26.0736 34.3182 26.2 34 26.2H20.0968L22.8484 28.9516C23.0733 29.1767 23.1997 29.4818 23.1997 29.8C23.1997 30.1182 23.0733 30.4234 22.8484 30.6484Z" fill="white"/>
</svg>
