<svg width="51" height="50" viewBox="0 0 51 50" fill="none" xmlns="http://www.w3.org/2000/svg">
<rect x="0.199966" width="50" height="50" rx="25" fill="#004F5C"/>
<path fill-rule="evenodd" clip-rule="evenodd" d="M25.5516 16.9516C25.7766 16.7266 26.0818 16.6002 26.4 16.6002C26.7182 16.6002 27.0233 16.7266 27.2484 16.9516L34.4484 24.1516C34.6733 24.3766 34.7997 24.6818 34.7997 25C34.7997 25.3182 34.6733 25.6233 34.4484 25.8484L27.2484 33.0484C27.022 33.267 26.7189 33.3879 26.4043 33.3852C26.0896 33.3824 25.7887 33.2562 25.5662 33.0337C25.3437 32.8113 25.2175 32.5103 25.2148 32.1956C25.212 31.881 25.333 31.5779 25.5516 31.3516L30.7032 26.2H16.8C16.4817 26.2 16.1765 26.0735 15.9514 25.8485C15.7264 25.6234 15.6 25.3182 15.6 25C15.6 24.6817 15.7264 24.3765 15.9514 24.1514C16.1765 23.9264 16.4817 23.8 16.8 23.8H30.7032L25.5516 18.6484C25.3266 18.4233 25.2002 18.1182 25.2002 17.8C25.2002 17.4818 25.3266 17.1766 25.5516 16.9516Z" fill="white"/>
</svg>
